<!-- Generated by IcoMoon.io -->
<svg version="1.1" xmlns="http://www.w3.org/2000/svg" width="17" height="20" viewBox="0 0 17 20">
<title>external-link-square</title>
<path d="M14.286 10.357v-5.357c0-0.391-0.324-0.714-0.714-0.714h-5.357c-0.29 0-0.547 0.179-0.658 0.435-0.112 0.268-0.056 0.58 0.156 0.781l1.607 1.607-5.96 5.96c-0.279 0.279-0.279 0.725 0 1.004l1.138 1.138c0.279 0.279 0.725 0.279 1.004 0l5.96-5.96 1.607 1.607c0.134 0.145 0.313 0.212 0.502 0.212 0.089 0 0.19-0.022 0.279-0.056 0.257-0.112 0.435-0.368 0.435-0.658zM17.143 4.643v10.714c0 1.775-1.44 3.214-3.214 3.214h-10.714c-1.775 0-3.214-1.44-3.214-3.214v-10.714c0-1.775 1.44-3.214 3.214-3.214h10.714c1.775 0 3.214 1.44 3.214 3.214z"></path>
</svg>
