<svg aria-hidden="true" style="position: absolute; width: 0; height: 0; overflow: hidden;" version="1.1" xmlns="http://www.w3.org/2000/svg" xmlns:xlink="http://www.w3.org/1999/xlink">
<defs>
<symbol id="icon-chevron-down" viewBox="0 0 40 40">
<path d="M9.032 15.096c0.872-0.892 2.086-0.962 3.152 0l7.816 7.494 7.816-7.494c1.066-0.962 2.282-0.892 3.148 0 0.872 0.89 0.816 2.394 0 3.23-0.812 0.836-9.39 9.004-9.39 9.004-0.434 0.446-1.004 0.67-1.574 0.67s-1.14-0.224-1.578-0.67c0 0-8.574-8.168-9.39-9.004-0.818-0.836-0.872-2.34 0-3.23z"></path>
</symbol>
<symbol id="icon-chevron-left" viewBox="0 0 40 40">
<path d="M24.904 9.032c0.892 0.872 0.962 2.086 0 3.152l-7.494 7.816 7.494 7.816c0.962 1.066 0.892 2.282 0 3.148-0.89 0.872-2.394 0.816-3.23 0-0.836-0.812-9.004-9.39-9.004-9.39-0.446-0.434-0.67-1.004-0.67-1.574s0.224-1.14 0.67-1.578c0 0 8.168-8.574 9.004-9.39 0.836-0.818 2.34-0.872 3.23 0z"></path>
</symbol>
<symbol id="icon-chevron-right" viewBox="0 0 40 40">
<path d="M18.326 9.032c0.836 0.816 9.004 9.39 9.004 9.39 0.446 0.438 0.67 1.008 0.67 1.578s-0.224 1.14-0.67 1.574c0 0-8.168 8.578-9.004 9.39-0.836 0.816-2.34 0.872-3.23 0-0.892-0.868-0.962-2.082 0-3.148l7.494-7.816-7.494-7.816c-0.962-1.066-0.892-2.282 0-3.152 0.89-0.872 2.394-0.818 3.23 0z"></path>
</symbol>
<symbol id="icon-chevron-small-down" viewBox="0 0 40 40">
<path d="M26.836 15.718c0.542-0.536 1.418-0.536 1.956 0 0.54 0.536 0.544 1.402 0 1.938l-7.816 7.66c-0.54 0.536-1.414 0.536-1.958 0l-7.816-7.66c-0.54-0.534-0.54-1.402 0-1.938 0.542-0.536 1.418-0.536 1.956 0l6.842 6.282 6.836-6.282z"></path>
</symbol>
<symbol id="icon-chevron-small-left" viewBox="0 0 40 40">
<path d="M24.282 26.836c0.536 0.542 0.536 1.418 0 1.956-0.536 0.54-1.402 0.544-1.938 0l-7.66-7.816c-0.536-0.54-0.536-1.414 0-1.958l7.66-7.816c0.534-0.54 1.402-0.54 1.938 0 0.536 0.542 0.536 1.418 0 1.956l-6.282 6.842 6.282 6.836z"></path>
</symbol>
<symbol id="icon-chevron-small-right" viewBox="0 0 40 40">
<path d="M22 20l-6.282-6.84c-0.536-0.54-0.536-1.414 0-1.956 0.536-0.54 1.402-0.54 1.938 0l7.66 7.816c0.536 0.542 0.536 1.418 0 1.958l-7.66 7.816c-0.534 0.544-1.402 0.54-1.938 0-0.536-0.538-0.536-1.414 0-1.956l6.282-6.838z"></path>
</symbol>
<symbol id="icon-chevron-small-up" viewBox="0 0 40 40">
<path d="M13.164 24.282c-0.542 0.536-1.418 0.536-1.956 0s-0.544-1.402 0-1.938l7.816-7.66c0.54-0.536 1.414-0.536 1.958 0l7.816 7.66c0.54 0.534 0.54 1.402 0 1.938-0.542 0.536-1.418 0.536-1.958 0l-6.84-6.282-6.836 6.282z"></path>
</symbol>
<symbol id="icon-chevron-thin-down" viewBox="0 0 40 40">
<path d="M34.836 12.218c0.544-0.536 1.418-0.536 1.958 0s0.542 1.402 0 1.938l-15.816 15.66c-0.54 0.536-1.414 0.536-1.958 0l-15.816-15.66c-0.54-0.536-0.54-1.402 0-1.938 0.542-0.536 1.418-0.536 1.958 0l14.838 14.282 14.836-14.282z"></path>
</symbol>
<symbol id="icon-chevron-thin-left" viewBox="0 0 40 40">
<path d="M27.782 34.836c0.536 0.544 0.536 1.418 0 1.958s-1.402 0.542-1.938 0l-15.66-15.816c-0.536-0.54-0.536-1.414 0-1.958l15.66-15.816c0.536-0.54 1.402-0.54 1.938 0 0.536 0.542 0.536 1.418 0 1.958l-14.282 14.838 14.282 14.836z"></path>
</symbol>
<symbol id="icon-chevron-thin-right" viewBox="0 0 40 40">
<path d="M26.5 20l-14.282-14.84c-0.536-0.54-0.536-1.414 0-1.958 0.536-0.54 1.402-0.54 1.938 0l15.66 15.816c0.536 0.542 0.536 1.418 0 1.958l-15.66 15.816c-0.536 0.542-1.402 0.54-1.938 0-0.536-0.538-0.536-1.414 0-1.958l14.282-14.834z"></path>
</symbol>
<symbol id="icon-chevron-thin-up" viewBox="0 0 40 40">
<path d="M5.164 27.782c-0.544 0.536-1.418 0.536-1.958 0s-0.542-1.402 0-1.938l15.816-15.66c0.54-0.536 1.414-0.536 1.958 0l15.816 15.66c0.54 0.536 0.54 1.402 0 1.938-0.542 0.536-1.418 0.536-1.956 0l-14.84-14.282-14.836 14.282z"></path>
</symbol>
<symbol id="icon-chevron-up" viewBox="0 0 40 40">
<path d="M30.968 24.904c-0.872 0.892-2.086 0.962-3.152 0l-7.816-7.494-7.816 7.494c-1.066 0.962-2.282 0.892-3.148 0-0.872-0.89-0.816-2.394 0-3.23 0.812-0.836 9.39-9.004 9.39-9.004 0.434-0.446 1.004-0.67 1.574-0.67s1.14 0.224 1.578 0.67c0 0 8.574 8.168 9.39 9.004 0.818 0.836 0.872 2.34 0 3.23z"></path>
</symbol>
<symbol id="icon-chevron-with-circle-down" viewBox="0 0 40 40">
<path d="M25.010 17.396l-5.010 4.604-5.012-4.604c-0.396-0.392-1.036-0.392-1.436 0-0.394 0.392-0.394 1.030 0 1.42l5.728 5.614c0.398 0.392 1.040 0.392 1.434 0l5.728-5.614c0.398-0.39 0.396-1.028 0-1.42-0.394-0.392-1.034-0.392-1.432 0zM20 0.8c-10.604 0-19.2 8.596-19.2 19.2 0 10.606 8.596 19.2 19.2 19.2s19.2-8.594 19.2-19.2c0-10.604-8.596-19.2-19.2-19.2zM20 36.708c-9.23 0-16.708-7.48-16.708-16.708s7.478-16.708 16.708-16.708c9.226 0 16.708 7.48 16.708 16.708s-7.482 16.708-16.708 16.708z"></path>
</symbol>
<symbol id="icon-chevron-with-circle-left" viewBox="0 0 40 40">
<path d="M22.604 13.552c-0.392-0.394-1.030-0.394-1.42 0l-5.614 5.73c-0.392 0.398-0.392 1.040 0 1.434l5.614 5.728c0.39 0.398 1.028 0.396 1.42 0 0.392-0.394 0.392-1.036 0-1.434l-4.604-5.010 4.604-5.012c0.392-0.396 0.392-1.036 0-1.436zM20 0.8c-10.604 0-19.2 8.596-19.2 19.2 0 10.606 8.596 19.2 19.2 19.2s19.2-8.594 19.2-19.2c0-10.604-8.596-19.2-19.2-19.2zM20 36.708c-9.23 0-16.708-7.48-16.708-16.708s7.478-16.708 16.708-16.708c9.226 0 16.708 7.48 16.708 16.708s-7.482 16.708-16.708 16.708z"></path>
</symbol>
<symbol id="icon-chevron-with-circle-right" viewBox="0 0 40 40">
<path d="M22 20l-4.604-5.012c-0.392-0.396-0.392-1.038 0-1.436 0.392-0.394 1.030-0.394 1.42 0l5.614 5.728c0.392 0.398 0.392 1.040 0 1.434l-5.614 5.728c-0.39 0.398-1.028 0.396-1.42 0-0.392-0.394-0.392-1.036 0-1.434l4.604-5.008zM20 0.8c10.604 0 19.2 8.596 19.2 19.2 0 10.606-8.596 19.2-19.2 19.2s-19.2-8.594-19.2-19.2c0-10.604 8.596-19.2 19.2-19.2zM20 36.708c9.226 0 16.708-7.48 16.708-16.708s-7.482-16.708-16.708-16.708c-9.23 0-16.708 7.48-16.708 16.708-0.002 9.228 7.478 16.708 16.708 16.708z"></path>
</symbol>
<symbol id="icon-chevron-with-circle-up" viewBox="0 0 40 40">
<path d="M20.718 15.57c-0.398-0.392-1.040-0.392-1.434 0l-5.728 5.614c-0.398 0.39-0.396 1.028 0 1.42 0.394 0.392 1.036 0.392 1.434 0l5.010-4.604 5.012 4.604c0.396 0.392 1.036 0.392 1.436 0 0.394-0.392 0.394-1.030 0-1.42l-5.73-5.614zM20 0.8c-10.604 0-19.2 8.596-19.2 19.2 0 10.606 8.596 19.2 19.2 19.2s19.2-8.594 19.2-19.2c0-10.604-8.596-19.2-19.2-19.2zM20 36.708c-9.23 0-16.708-7.48-16.708-16.708s7.478-16.708 16.708-16.708c9.226 0 16.708 7.48 16.708 16.708s-7.482 16.708-16.708 16.708z"></path>
</symbol>
<symbol id="icon-dots-three-vertical" viewBox="0 0 40 40">
<path d="M20.002 15.6c-2.43 0-4.402 1.97-4.402 4.4s1.972 4.4 4.402 4.4c2.43 0 4.398-1.97 4.398-4.4s-1.968-4.4-4.398-4.4zM20.002 10.4c2.43 0 4.398-1.972 4.398-4.4s-1.968-4.4-4.398-4.4c-2.43 0-4.402 1.97-4.402 4.4s1.972 4.4 4.402 4.4zM20.002 29.6c-2.43 0-4.402 1.97-4.402 4.4s1.972 4.4 4.402 4.4c2.43 0 4.398-1.97 4.398-4.4s-1.968-4.4-4.398-4.4z"></path>
</symbol>
<symbol id="icon-instagram-with-circle" viewBox="0 0 40 40">
<path d="M26 20c0 3.314-2.686 6-6 6s-6-2.686-6-6c0-0.342 0.036-0.676 0.098-1h-2.098v7.994c0 0.556 0.45 1.006 1.006 1.006h13.99c0.554 0 1.004-0.45 1.004-1.006v-7.994h-2.098c0.062 0.324 0.098 0.658 0.098 1zM20 24c2.208 0 4-1.792 4-4s-1.792-4-4-4-4 1.792-4 4 1.792 4 4 4zM24.8 15.8h2.398c0.332 0 0.602-0.27 0.602-0.6v-2.398c0-0.332-0.27-0.602-0.602-0.602h-2.398c-0.332 0-0.602 0.27-0.602 0.602v2.398c0.002 0.33 0.272 0.6 0.602 0.6zM20 0.8c-10.604 0-19.2 8.596-19.2 19.2s8.596 19.2 19.2 19.2c10.604 0 19.2-8.596 19.2-19.2s-8.596-19.2-19.2-19.2zM30 27.778c0 1.222-1 2.222-2.222 2.222h-15.556c-1.222 0-2.222-1-2.222-2.222v-15.556c0-1.222 1-2.222 2.222-2.222h15.556c1.222 0 2.222 1 2.222 2.222v15.556z"></path>
</symbol>
<symbol id="icon-linkedin-with-circle" viewBox="0 0 40 40">
<path d="M20 0.8c-10.604 0-19.2 8.596-19.2 19.2s8.596 19.2 19.2 19.2 19.2-8.596 19.2-19.2-8.596-19.2-19.2-19.2zM15.3 27.958h-3.888v-12.512h3.888v12.512zM13.332 13.91c-1.228 0-2.022-0.87-2.022-1.946 0-1.098 0.818-1.942 2.072-1.942s2.022 0.844 2.046 1.942c0 1.076-0.792 1.946-2.096 1.946zM29.5 27.958h-3.888v-6.934c0-1.614-0.564-2.71-1.97-2.71-1.074 0-1.712 0.742-1.994 1.456-0.104 0.254-0.13 0.614-0.13 0.972v7.214h-3.89v-8.52c0-1.562-0.050-2.868-0.102-3.992h3.378l0.178 1.738h0.078c0.512-0.816 1.766-2.020 3.864-2.020 2.558 0 4.476 1.714 4.476 5.398v7.398z"></path>
</symbol>
<symbol id="icon-pencil2" viewBox="0 0 40 40">
<path d="M15 25l5-2.5 17.5-17.5-2.5-2.5-17.5 17.5-2.5 5zM11.301 33.871c-1.236-2.607-2.565-3.936-5.172-5.172l3.871-10.656 5-3.043 15-15h-7.5l-15 15-7.5 25 25-7.5 15-15v-7.5l-15 15-3.043 5z"></path>
</symbol>
<symbol id="icon-quill" viewBox="0 0 40 40">
<path d="M0 40c5-15 18.086-40 40-40-10.273 8.242-15 27.5-22.5 27.5s-7.5 0-7.5 0l-7.5 12.5h-2.5z"></path>
</symbol>
<symbol id="icon-pen" viewBox="0 0 40 40">
<path d="M39.772 11.402l-11.174-11.174c-0.365-0.365-0.845-0.283-1.069 0.182l-1.498 3.121 10.437 10.437 3.121-1.498c0.465-0.223 0.547-0.704 0.182-1.069z"></path>
<path d="M24.038 5.288l-10.288 0.857c-0.684 0.085-1.253 0.23-1.449 1.123-0 0.001-0 0.002-0.001 0.003-2.79 13.401-12.3 26.478-12.3 26.478l2.241 2.241 10.624-10.625c-0.234-0.489-0.366-1.038-0.366-1.617 0-2.071 1.679-3.75 3.75-3.75s3.75 1.679 3.75 3.75-1.679 3.75-3.75 3.75c-0.579 0-1.127-0.131-1.617-0.366l-10.625 10.624 2.241 2.241c0 0 13.077-9.511 26.478-12.3 0.001-0 0.002-0 0.003-0.001 0.893-0.196 1.039-0.765 1.123-1.449l0.857-10.288-10.673-10.673z"></path>
</symbol>
<symbol id="icon-arrow-right2" viewBox="0 0 40 40">
<path d="M24.268 34.268l12.5-12.5c0.976-0.976 0.976-2.559 0-3.536l-12.5-12.5c-0.976-0.976-2.559-0.976-3.536 0s-0.976 2.559 0 3.536l8.232 8.232h-23.964c-1.381 0-2.5 1.119-2.5 2.5s1.119 2.5 2.5 2.5h23.964l-8.232 8.232c-0.488 0.488-0.732 1.128-0.732 1.768s0.244 1.28 0.732 1.768c0.976 0.976 2.559 0.976 3.536 0z"></path>
</symbol>
<symbol id="icon-mail4" viewBox="0 0 40 40">
<path d="M20 0c-11.046 0-20 8.954-20 20s8.954 20 20 20 20-8.954 20-20-8.954-20-20-20zM10 10h20c0.357 0 0.703 0.077 1.021 0.221l-11.021 12.858-11.021-12.858c0.318-0.144 0.664-0.221 1.021-0.221zM7.5 27.5v-15c0-0.052 0.002-0.104 0.005-0.156l7.331 8.552-7.25 7.25c-0.056-0.208-0.086-0.425-0.086-0.646zM30 30h-20c-0.221 0-0.438-0.030-0.646-0.086l7.114-7.114 3.532 4.121 3.532-4.121 7.114 7.114c-0.209 0.056-0.425 0.086-0.646 0.086zM32.5 27.5c0 0.221-0.030 0.438-0.086 0.646l-7.25-7.25 7.331-8.552c0.003 0.052 0.005 0.104 0.005 0.156v15z"></path>
</symbol>
</defs>
</svg>
