<!-- Generated by IcoMoon.io -->
<svg version="1.1" xmlns="http://www.w3.org/2000/svg" width="40" height="40" viewBox="0 0 40 40">
<title>chevron-with-circle-left</title>
<path d="M22.604 13.552c-0.392-0.394-1.030-0.394-1.42 0l-5.614 5.73c-0.392 0.398-0.392 1.040 0 1.434l5.614 5.728c0.39 0.398 1.028 0.396 1.42 0 0.392-0.394 0.392-1.036 0-1.434l-4.604-5.010 4.604-5.012c0.392-0.396 0.392-1.036 0-1.436zM20 0.8c-10.604 0-19.2 8.596-19.2 19.2 0 10.606 8.596 19.2 19.2 19.2s19.2-8.594 19.2-19.2c0-10.604-8.596-19.2-19.2-19.2zM20 36.708c-9.23 0-16.708-7.48-16.708-16.708s7.478-16.708 16.708-16.708c9.226 0 16.708 7.48 16.708 16.708s-7.482 16.708-16.708 16.708z"></path>
</svg>
