<!-- Generated by IcoMoon.io -->
<svg version="1.1" xmlns="http://www.w3.org/2000/svg" width="40" height="40" viewBox="0 0 40 40">
<title>chevron-with-circle-right</title>
<path d="M22 20l-4.604-5.012c-0.392-0.396-0.392-1.038 0-1.436 0.392-0.394 1.030-0.394 1.42 0l5.614 5.728c0.392 0.398 0.392 1.040 0 1.434l-5.614 5.728c-0.39 0.398-1.028 0.396-1.42 0-0.392-0.394-0.392-1.036 0-1.434l4.604-5.008zM20 0.8c10.604 0 19.2 8.596 19.2 19.2 0 10.606-8.596 19.2-19.2 19.2s-19.2-8.594-19.2-19.2c0-10.604 8.596-19.2 19.2-19.2zM20 36.708c9.226 0 16.708-7.48 16.708-16.708s-7.482-16.708-16.708-16.708c-9.23 0-16.708 7.48-16.708 16.708-0.002 9.228 7.478 16.708 16.708 16.708z"></path>
</svg>
