<!-- Generated by IcoMoon.io -->
<svg version="1.1" xmlns="http://www.w3.org/2000/svg" width="40" height="40" viewBox="0 0 40 40">
<title>dots-three-vertical</title>
<path d="M20.002 15.6c-2.43 0-4.402 1.97-4.402 4.4s1.972 4.4 4.402 4.4c2.43 0 4.398-1.97 4.398-4.4s-1.968-4.4-4.398-4.4zM20.002 10.4c2.43 0 4.398-1.972 4.398-4.4s-1.968-4.4-4.398-4.4c-2.43 0-4.402 1.97-4.402 4.4s1.972 4.4 4.402 4.4zM20.002 29.6c-2.43 0-4.402 1.97-4.402 4.4s1.972 4.4 4.402 4.4c2.43 0 4.398-1.97 4.398-4.4s-1.968-4.4-4.398-4.4z"></path>
</svg>
