<!-- Generated by IcoMoon.io -->
<svg version="1.1" xmlns="http://www.w3.org/2000/svg" width="40" height="40" viewBox="0 0 40 40">
<title>mail4</title>
<path d="M20 0c-11.046 0-20 8.954-20 20s8.954 20 20 20 20-8.954 20-20-8.954-20-20-20zM10 10h20c0.357 0 0.703 0.077 1.021 0.221l-11.021 12.858-11.021-12.858c0.318-0.144 0.664-0.221 1.021-0.221zM7.5 27.5v-15c0-0.052 0.002-0.104 0.005-0.156l7.331 8.552-7.25 7.25c-0.056-0.208-0.086-0.425-0.086-0.646zM30 30h-20c-0.221 0-0.438-0.030-0.646-0.086l7.114-7.114 3.532 4.121 3.532-4.121 7.114 7.114c-0.209 0.056-0.425 0.086-0.646 0.086zM32.5 27.5c0 0.221-0.030 0.438-0.086 0.646l-7.25-7.25 7.331-8.552c0.003 0.052 0.005 0.104 0.005 0.156v15z"></path>
</svg>
