<!-- Generated by IcoMoon.io -->
<svg version="1.1" xmlns="http://www.w3.org/2000/svg" width="40" height="40" viewBox="0 0 40 40">
<title>pen</title>
<path d="M39.772 11.402l-11.174-11.174c-0.365-0.365-0.845-0.283-1.069 0.182l-1.498 3.121 10.437 10.437 3.121-1.498c0.465-0.223 0.547-0.704 0.182-1.069z"></path>
<path d="M24.038 5.288l-10.288 0.857c-0.684 0.085-1.253 0.23-1.449 1.123-0 0.001-0 0.002-0.001 0.003-2.79 13.401-12.3 26.478-12.3 26.478l2.241 2.241 10.624-10.625c-0.234-0.489-0.366-1.038-0.366-1.617 0-2.071 1.679-3.75 3.75-3.75s3.75 1.679 3.75 3.75-1.679 3.75-3.75 3.75c-0.579 0-1.127-0.131-1.617-0.366l-10.625 10.624 2.241 2.241c0 0 13.077-9.511 26.478-12.3 0.001-0 0.002-0 0.003-0.001 0.893-0.196 1.039-0.765 1.123-1.449l0.857-10.288-10.673-10.673z"></path>
</svg>
